<?xml version="1.0" encoding="UTF-8" standalone="no"?>
<svg
   xmlns:dc="http://purl.org/dc/elements/1.1/"
   xmlns:cc="http://creativecommons.org/ns#"
   xmlns:rdf="http://www.w3.org/1999/02/22-rdf-syntax-ns#"
   xmlns:svg="http://www.w3.org/2000/svg"
   xmlns="http://www.w3.org/2000/svg"
   xmlns:sodipodi="http://sodipodi.sourceforge.net/DTD/sodipodi-0.dtd"
   xmlns:inkscape="http://www.inkscape.org/namespaces/inkscape"
   width="38.215092"
   height="38.707882"
   viewBox="0 0 38.215092 38.707882"
   version="1.1"
   xml:space="preserve"
   style="clip-rule:evenodd;fill-rule:evenodd;stroke-linejoin:round;stroke-miterlimit:1.5"
   id="svg138"
   sodipodi:docname="FATS-logo-only.svg"
   inkscape:version="1.0.1 (3bc2e813f5, 2020-09-07)"><metadata
   id="metadata144"><rdf:RDF><cc:Work
       rdf:about=""><dc:format>image/svg+xml</dc:format><dc:type
         rdf:resource="http://purl.org/dc/dcmitype/StillImage" /><dc:title /></cc:Work></rdf:RDF></metadata><defs
   id="defs142"><clipPath
     clipPathUnits="userSpaceOnUse"
     id="clipPath971"><rect
       style="fill:#ff0000;stroke-width:6.78803;stroke-linecap:square;stroke-linejoin:round;paint-order:markers fill stroke"
       id="rect973"
       width="81.090569"
       height="103.22736"
       x="60.868774"
       y="363.43692" /></clipPath><clipPath
     clipPathUnits="userSpaceOnUse"
     id="clipPath977"><rect
       style="fill:#ff0000;stroke-width:6.78803;stroke-linecap:square;stroke-linejoin:round;paint-order:markers fill stroke"
       id="rect979"
       width="54.060379"
       height="58.254719"
       x="86.500847"
       y="392.56427" /></clipPath><clipPath
     clipPathUnits="userSpaceOnUse"
     id="clipPath983"><rect
       style="fill:#ff0000;stroke-width:6.78803;stroke-linecap:square;stroke-linejoin:round;paint-order:markers fill stroke"
       id="rect985"
       width="38.448112"
       height="43.458019"
       x="96.763"
       y="396.77783" /></clipPath><clipPath
     clipPathUnits="userSpaceOnUse"
     id="clipPath905"><rect
       style="fill:#ff0000;stroke-width:6.78803;stroke-linecap:square;stroke-linejoin:round;paint-order:markers fill stroke"
       id="rect907"
       width="38.564621"
       height="39.030659"
       x="96.879509"
       y="401.2052" /></clipPath></defs><sodipodi:namedview
   pagecolor="#ffffff"
   bordercolor="#666666"
   borderopacity="1"
   objecttolerance="10"
   gridtolerance="10"
   guidetolerance="10"
   inkscape:pageopacity="0"
   inkscape:pageshadow="2"
   inkscape:window-width="2560"
   inkscape:window-height="1377"
   id="namedview140"
   showgrid="false"
   inkscape:zoom="8.5829959"
   inkscape:cx="25.1897"
   inkscape:cy="22.867333"
   inkscape:window-x="-8"
   inkscape:window-y="-8"
   inkscape:window-maximized="1"
   inkscape:current-layer="svg138"
   inkscape:pagecheckerboard="true"
   fit-margin-top="0"
   lock-margins="false"
   fit-margin-left="0"
   fit-margin-right="0"
   fit-margin-bottom="0"
   inkscape:document-rotation="0" /> <g
   transform="translate(-96.996022,-401.43822)"
   id="g136"
   clip-path="url(#clipPath905)"> <g
   transform="translate(186.616,79.2823)"
   id="g134"> <g
   transform="matrix(0.485792,0,0,0.485792,-242.183,33.0834)"
   id="g132"> <g
   transform="matrix(0.518518,0,0,0.518518,272.353,525.087)"
   id="g16"> <g
   transform="translate(-70.9131,-47.4187)"
   id="g4"> <circle
   cx="226.91299"
   cy="262.38901"
   r="69.050003"
   style="fill:#333333;stroke:#ffffff;stroke-width:9.17px"
   id="circle2" /> </g> <g
   transform="translate(-171.161,4.15622)"
   id="g14"> <g
   transform="matrix(1.16918,0,0,1.03395,-86.4305,-13.6232)"
   id="g8"> <path
   d="m 352.758,140.727 34.702,71.614 -22.17,-0.09 -12.196,-24.908 -6.941,15.306 13.798,33.879 -19.555,-0.083 -5.211,-11.691 -9.166,19.148 -23.17,-0.178 z"
   style="fill:#ffffff;stroke:#333333;stroke-width:2.13px;stroke-linecap:square"
   id="path6" /> </g> <g
   transform="matrix(-0.584592,-1.01254,0.89543,-0.516977,332.924,695.932)"
   id="g12"> <path
   d="m 352.758,140.727 10.238,21.129 -39.877,78.976 12.285,-0.38 6.024,-11.509 18.562,1.587 -16.788,33.162 -51.603,-3.188 z"
   style="fill:#ffffff;stroke:#333333;stroke-width:2.13px;stroke-linecap:square"
   id="path10" /> </g> </g> </g> <g
   transform="matrix(2.43559,0,0,2.43559,-133.914,-89.5315)"
   id="g130"> <g
   transform="matrix(14,0,0,14,221.178,294.801)"
   id="g20"> <path
   d="m 0.76,-0.676 v 0.179 H 0.258 c -0.019,0 -0.028,0.01 -0.028,0.03 v 0.073 h 0.527 v 0.168 H 0.23 V 0 H 0.049 v -0.552 c 0,-0.083 0.041,-0.124 0.122,-0.124 z"
   style="fill:#ffffff;fill-rule:nonzero"
   id="path18" /> </g> <g
   transform="matrix(14,0,0,14,232.238,294.801)"
   id="g24"> <path
   d="M 0.394,0 C 0.333,0 0.281,-0.01 0.236,-0.029 0.191,-0.049 0.153,-0.076 0.122,-0.11 0.095,-0.14 0.073,-0.174 0.058,-0.213 0.043,-0.252 0.035,-0.293 0.035,-0.338 c 0,-0.049 0.01,-0.095 0.029,-0.138 0.019,-0.043 0.046,-0.08 0.08,-0.111 0.03,-0.028 0.066,-0.05 0.107,-0.066 0.041,-0.015 0.088,-0.023 0.143,-0.023 h 0.142 c 0.055,0 0.103,0.008 0.144,0.023 0.041,0.016 0.076,0.038 0.106,0.066 0.034,0.031 0.061,0.068 0.08,0.111 0.019,0.043 0.029,0.089 0.029,0.138 0,0.045 -0.008,0.086 -0.023,0.125 C 0.857,-0.174 0.835,-0.14 0.808,-0.11 0.777,-0.076 0.739,-0.049 0.694,-0.029 0.649,-0.01 0.597,0 0.536,0 Z m 0,-0.497 c -0.031,0 -0.056,0.004 -0.076,0.012 -0.02,0.008 -0.037,0.019 -0.052,0.032 -0.015,0.015 -0.028,0.032 -0.036,0.052 -0.009,0.02 -0.014,0.041 -0.014,0.064 0,0.021 0.004,0.04 0.011,0.058 0.007,0.019 0.018,0.035 0.031,0.049 0.015,0.016 0.033,0.029 0.055,0.038 0.022,0.009 0.049,0.014 0.081,0.014 h 0.142 c 0.032,0 0.059,-0.005 0.081,-0.014 C 0.639,-0.201 0.657,-0.214 0.672,-0.23 0.685,-0.244 0.696,-0.26 0.703,-0.279 0.71,-0.297 0.714,-0.316 0.714,-0.337 0.714,-0.36 0.71,-0.381 0.701,-0.401 0.692,-0.421 0.679,-0.438 0.664,-0.453 0.649,-0.466 0.632,-0.477 0.612,-0.485 0.592,-0.493 0.567,-0.497 0.536,-0.497 Z"
   style="fill:#ffffff;fill-rule:nonzero"
   id="path22" /> </g> <g
   transform="matrix(14,0,0,14,245.286,294.801)"
   id="g28"> <path
   d="M 0.231,0 H 0.05 v -0.634 c 0,-0.028 0.015,-0.042 0.045,-0.042 h 0.48 c 0.042,0 0.077,0.006 0.104,0.017 0.027,0.012 0.05,0.028 0.069,0.047 0.017,0.017 0.03,0.037 0.04,0.06 0.009,0.023 0.014,0.048 0.014,0.073 0,0.027 -0.005,0.053 -0.014,0.077 -0.009,0.025 -0.026,0.046 -0.05,0.063 0.023,0.013 0.039,0.03 0.05,0.051 0.01,0.021 0.015,0.05 0.015,0.089 v 0.135 c 0,0.015 0,0.027 0.001,0.036 0,0.009 0.001,0.019 0.002,0.028 H 0.623 C 0.621,-0.015 0.62,-0.03 0.62,-0.045 V -0.18 C 0.62,-0.201 0.614,-0.217 0.603,-0.226 0.592,-0.235 0.573,-0.24 0.546,-0.24 H 0.231 Z m 0.32,-0.394 c 0.013,0 0.023,-0.002 0.031,-0.006 C 0.59,-0.404 0.597,-0.409 0.602,-0.416 0.611,-0.427 0.615,-0.438 0.615,-0.451 0.615,-0.466 0.61,-0.479 0.6,-0.489 0.589,-0.501 0.573,-0.507 0.551,-0.507 H 0.246 c -0.01,0 -0.015,0.005 -0.015,0.015 v 0.098 z"
   style="fill:#ffffff;fill-rule:nonzero"
   id="path26" /> </g> <g
   transform="matrix(14,0,0,14,256.92,294.801)"
   id="g32"> <path
   d="M 0.394,0 C 0.333,0 0.281,-0.01 0.236,-0.029 0.191,-0.049 0.153,-0.076 0.122,-0.11 0.095,-0.14 0.073,-0.174 0.058,-0.213 0.043,-0.252 0.035,-0.293 0.035,-0.338 c 0,-0.049 0.01,-0.095 0.029,-0.138 0.019,-0.043 0.046,-0.08 0.08,-0.111 0.03,-0.028 0.066,-0.05 0.107,-0.066 0.041,-0.015 0.088,-0.023 0.143,-0.023 h 0.365 v 0.179 H 0.394 c -0.031,0 -0.056,0.004 -0.076,0.012 -0.02,0.008 -0.037,0.019 -0.052,0.032 -0.015,0.015 -0.028,0.032 -0.036,0.052 -0.009,0.02 -0.014,0.041 -0.014,0.064 0,0.021 0.004,0.04 0.011,0.058 0.007,0.019 0.018,0.035 0.031,0.049 0.015,0.016 0.033,0.029 0.055,0.039 0.022,0.011 0.049,0.016 0.081,0.016 h 0.173 c 0.009,0 0.013,-0.005 0.013,-0.014 V -0.37 h 0.18 v 0.327 C 0.76,-0.014 0.746,0 0.717,0 Z"
   style="fill:#ffffff;fill-rule:nonzero"
   id="path30" /> </g> <g
   transform="matrix(14,0,0,14,268.218,294.801)"
   id="g36"> <path
   d="m 0.76,-0.676 v 0.179 H 0.246 c -0.011,0 -0.016,0.006 -0.016,0.017 v 0.077 h 0.527 v 0.13 H 0.23 v 0.082 c 0,0.012 0.005,0.018 0.016,0.018 H 0.76 V 0 H 0.144 C 0.081,0 0.049,-0.031 0.049,-0.094 v -0.491 c 0,-0.061 0.032,-0.091 0.096,-0.091 z"
   style="fill:#ffffff;fill-rule:nonzero"
   id="path34" /> </g> <g
   transform="matrix(14,0,0,14,279.348,294.801)"
   id="g40"> <path
   d="m 0.459,-0.676 c 0.055,0 0.103,0.008 0.144,0.023 0.041,0.016 0.076,0.038 0.106,0.066 0.034,0.031 0.061,0.068 0.08,0.111 0.019,0.043 0.029,0.089 0.029,0.138 0,0.045 -0.008,0.086 -0.023,0.125 C 0.78,-0.174 0.758,-0.14 0.731,-0.11 0.7,-0.076 0.662,-0.049 0.617,-0.029 0.572,-0.01 0.52,0 0.459,0 H 0.094 C 0.065,0 0.05,-0.014 0.05,-0.043 v -0.591 c 0,-0.028 0.015,-0.042 0.044,-0.042 z m -0.215,0.179 c -0.009,0 -0.013,0.005 -0.013,0.014 v 0.291 c 0,0.009 0.004,0.014 0.013,0.014 h 0.215 c 0.032,0 0.059,-0.005 0.081,-0.014 C 0.562,-0.201 0.58,-0.214 0.595,-0.23 0.608,-0.244 0.619,-0.26 0.626,-0.279 0.633,-0.297 0.637,-0.316 0.637,-0.337 0.637,-0.36 0.632,-0.381 0.624,-0.401 0.615,-0.421 0.602,-0.438 0.587,-0.453 0.572,-0.466 0.555,-0.477 0.535,-0.485 0.515,-0.493 0.49,-0.497 0.459,-0.497 Z"
   style="fill:#ffffff;fill-rule:nonzero"
   id="path38" /> </g> <g
   transform="matrix(14,0,0,14,296.96,294.801)"
   id="g44"> <path
   d="M 0.907,-0.03 C 0.91,-0.025 0.912,-0.02 0.914,-0.015 0.915,-0.01 0.917,-0.005 0.918,0 H 0.714 C 0.713,-0.005 0.711,-0.009 0.71,-0.013 0.709,-0.016 0.707,-0.02 0.706,-0.023 L 0.67,-0.105 H 0.27 L 0.235,-0.024 C 0.234,-0.02 0.232,-0.016 0.231,-0.012 0.23,-0.008 0.229,-0.004 0.228,0 H 0.019 C 0.02,-0.005 0.022,-0.01 0.024,-0.015 0.025,-0.02 0.027,-0.025 0.03,-0.03 l 0.242,-0.536 c 0.019,-0.042 0.045,-0.073 0.076,-0.094 0.031,-0.021 0.071,-0.031 0.12,-0.031 0.047,0 0.087,0.01 0.119,0.031 0.031,0.021 0.057,0.052 0.076,0.094 z M 0.604,-0.254 0.5,-0.496 C 0.497,-0.503 0.492,-0.509 0.487,-0.512 0.482,-0.515 0.476,-0.517 0.469,-0.517 c -0.006,0 -0.012,0.001 -0.017,0.004 -0.005,0.004 -0.01,0.009 -0.013,0.017 l -0.103,0.242 z"
   style="fill:#ffffff;fill-rule:nonzero"
   id="path42" /> </g> <g
   transform="matrix(14,0,0,14,308.006,294.801)"
   id="g48"> <path
   d="m 0.795,-0.676 v 0.179 H 0.499 V 0 H 0.317 V -0.497 H 0.02 v -0.179 z"
   style="fill:#ffffff;fill-rule:nonzero"
   id="path46" /> </g> <g
   transform="matrix(14,0,0,14,319.43,294.801)"
   id="g52"> <path
   d="M 0.818,-0.676 V 0 H 0.636 V -0.261 H 0.233 V 0 H 0.051 v -0.676 h 0.182 v 0.245 h 0.403 v -0.245 z"
   style="fill:#ffffff;fill-rule:nonzero"
   id="path50" /> </g> <g
   transform="matrix(14,0,0,14,331.61,294.801)"
   id="g56"> <path
   d="M 0.266,0 C 0.225,0 0.19,-0.005 0.162,-0.014 0.133,-0.023 0.111,-0.036 0.094,-0.055 0.077,-0.073 0.064,-0.096 0.057,-0.124 0.05,-0.151 0.046,-0.183 0.046,-0.22 v -0.456 h 0.182 v 0.439 c 0,0.025 0.004,0.041 0.013,0.05 0.008,0.009 0.024,0.014 0.047,0.014 H 0.757 V 0 Z"
   style="fill:#ffffff;fill-rule:nonzero"
   id="path54" /> </g> <g
   transform="matrix(14,0,0,14,342.488,294.801)"
   id="g60"> <path
   d="m 0.76,-0.676 v 0.179 H 0.246 c -0.011,0 -0.016,0.006 -0.016,0.017 v 0.077 h 0.527 v 0.13 H 0.23 v 0.082 c 0,0.012 0.005,0.018 0.016,0.018 H 0.76 V 0 H 0.144 C 0.081,0 0.049,-0.031 0.049,-0.094 v -0.491 c 0,-0.061 0.032,-0.091 0.096,-0.091 z"
   style="fill:#ffffff;fill-rule:nonzero"
   id="path58" /> </g> <g
   transform="matrix(14,0,0,14,353.618,294.801)"
   id="g64"> <path
   d="m 0.795,-0.676 v 0.179 H 0.499 V 0 H 0.317 V -0.497 H 0.02 v -0.179 z"
   style="fill:#ffffff;fill-rule:nonzero"
   id="path62" /> </g> <g
   transform="matrix(14,0,0,14,365.042,294.801)"
   id="g68"> <path
   d="m 0.76,-0.676 v 0.179 H 0.246 c -0.011,0 -0.016,0.006 -0.016,0.017 v 0.077 h 0.527 v 0.13 H 0.23 v 0.082 c 0,0.012 0.005,0.018 0.016,0.018 H 0.76 V 0 H 0.144 C 0.081,0 0.049,-0.031 0.049,-0.094 v -0.491 c 0,-0.061 0.032,-0.091 0.096,-0.091 z"
   style="fill:#ffffff;fill-rule:nonzero"
   id="path66" /> </g> <g
   transform="matrix(14,0,0,14,221.178,308.801)"
   id="g72"> <path
   d="m 0.795,-0.676 v 0.179 H 0.499 V 0 H 0.317 V -0.497 H 0.02 v -0.179 z"
   style="fill:#ffffff;fill-rule:nonzero"
   id="path70" /> </g> <g
   transform="matrix(14,0,0,14,232.602,308.801)"
   id="g76"> <path
   d="M 0.231,0 H 0.05 v -0.634 c 0,-0.028 0.015,-0.042 0.045,-0.042 h 0.48 c 0.042,0 0.077,0.006 0.104,0.017 0.027,0.012 0.05,0.028 0.069,0.047 0.017,0.017 0.03,0.037 0.04,0.06 0.009,0.023 0.014,0.048 0.014,0.073 0,0.027 -0.005,0.053 -0.014,0.077 -0.009,0.025 -0.026,0.046 -0.05,0.063 0.023,0.013 0.039,0.03 0.05,0.051 0.01,0.021 0.015,0.05 0.015,0.089 v 0.135 c 0,0.015 0,0.027 0.001,0.036 0,0.009 0.001,0.019 0.002,0.028 H 0.623 C 0.621,-0.015 0.62,-0.03 0.62,-0.045 V -0.18 C 0.62,-0.201 0.614,-0.217 0.603,-0.226 0.592,-0.235 0.573,-0.24 0.546,-0.24 H 0.231 Z m 0.32,-0.394 c 0.013,0 0.023,-0.002 0.031,-0.006 C 0.59,-0.404 0.597,-0.409 0.602,-0.416 0.611,-0.427 0.615,-0.438 0.615,-0.451 0.615,-0.466 0.61,-0.479 0.6,-0.489 0.589,-0.501 0.573,-0.507 0.551,-0.507 H 0.246 c -0.01,0 -0.015,0.005 -0.015,0.015 v 0.098 z"
   style="fill:#ffffff;fill-rule:nonzero"
   id="path74" /> </g> <g
   transform="matrix(14,0,0,14,244.39,308.801)"
   id="g80"> <path
   d="M 0.907,-0.03 C 0.91,-0.025 0.912,-0.02 0.914,-0.015 0.915,-0.01 0.917,-0.005 0.918,0 H 0.714 C 0.713,-0.005 0.711,-0.009 0.71,-0.013 0.709,-0.016 0.707,-0.02 0.706,-0.023 L 0.67,-0.105 H 0.27 L 0.235,-0.024 C 0.234,-0.02 0.232,-0.016 0.231,-0.012 0.23,-0.008 0.229,-0.004 0.228,0 H 0.019 C 0.02,-0.005 0.022,-0.01 0.024,-0.015 0.025,-0.02 0.027,-0.025 0.03,-0.03 l 0.242,-0.536 c 0.019,-0.042 0.045,-0.073 0.076,-0.094 0.031,-0.021 0.071,-0.031 0.12,-0.031 0.047,0 0.087,0.01 0.119,0.031 0.031,0.021 0.057,0.052 0.076,0.094 z M 0.604,-0.254 0.5,-0.496 C 0.497,-0.503 0.492,-0.509 0.487,-0.512 0.482,-0.515 0.476,-0.517 0.469,-0.517 c -0.006,0 -0.012,0.001 -0.017,0.004 -0.005,0.004 -0.01,0.009 -0.013,0.017 l -0.103,0.242 z"
   style="fill:#ffffff;fill-rule:nonzero"
   id="path78" /> </g> <g
   transform="matrix(14,0,0,14,257.536,308.801)"
   id="g84"> <rect
   x="0.050999999"
   y="-0.676"
   width="0.182"
   height="0.676"
   style="fill:#ffffff;fill-rule:nonzero"
   id="rect82" /> </g> <g
   transform="matrix(14,0,0,14,261.512,308.801)"
   id="g88"> <path
   d="m 0.889,-0.131 c 0,0.025 -0.004,0.047 -0.011,0.065 C 0.872,-0.047 0.862,-0.032 0.851,-0.021 0.839,-0.009 0.825,0 0.81,0.005 0.795,0.011 0.779,0.014 0.762,0.014 0.733,0.014 0.708,0.01 0.687,0.001 0.665,-0.007 0.646,-0.02 0.63,-0.039 L 0.259,-0.468 C 0.254,-0.474 0.248,-0.477 0.243,-0.477 c -0.005,0 -0.009,0.002 -0.012,0.005 -0.003,0.003 -0.005,0.008 -0.005,0.014 V 0 H 0.048 v -0.533 c 0,-0.029 0.004,-0.053 0.011,-0.073 0.008,-0.02 0.019,-0.036 0.033,-0.049 0.014,-0.013 0.031,-0.022 0.05,-0.028 0.019,-0.005 0.04,-0.008 0.063,-0.008 0.032,0 0.059,0.005 0.081,0.015 0.022,0.01 0.044,0.027 0.065,0.052 l 0.33,0.395 c 0.003,0.003 0.005,0.005 0.008,0.006 0.003,0.001 0.006,0.002 0.009,0.002 0.009,0 0.014,-0.006 0.014,-0.018 v -0.437 h 0.177 z"
   style="fill:#ffffff;fill-rule:nonzero"
   id="path86" /> </g> <g
   transform="matrix(14,0,0,14,274.658,308.801)"
   id="g92"> <rect
   x="0.050999999"
   y="-0.676"
   width="0.182"
   height="0.676"
   style="fill:#ffffff;fill-rule:nonzero"
   id="rect90" /> </g> <g
   transform="matrix(14,0,0,14,278.634,308.801)"
   id="g96"> <path
   d="m 0.889,-0.131 c 0,0.025 -0.004,0.047 -0.011,0.065 C 0.872,-0.047 0.862,-0.032 0.851,-0.021 0.839,-0.009 0.825,0 0.81,0.005 0.795,0.011 0.779,0.014 0.762,0.014 0.733,0.014 0.708,0.01 0.687,0.001 0.665,-0.007 0.646,-0.02 0.63,-0.039 L 0.259,-0.468 C 0.254,-0.474 0.248,-0.477 0.243,-0.477 c -0.005,0 -0.009,0.002 -0.012,0.005 -0.003,0.003 -0.005,0.008 -0.005,0.014 V 0 H 0.048 v -0.533 c 0,-0.029 0.004,-0.053 0.011,-0.073 0.008,-0.02 0.019,-0.036 0.033,-0.049 0.014,-0.013 0.031,-0.022 0.05,-0.028 0.019,-0.005 0.04,-0.008 0.063,-0.008 0.032,0 0.059,0.005 0.081,0.015 0.022,0.01 0.044,0.027 0.065,0.052 l 0.33,0.395 c 0.003,0.003 0.005,0.005 0.008,0.006 0.003,0.001 0.006,0.002 0.009,0.002 0.009,0 0.014,-0.006 0.014,-0.018 v -0.437 h 0.177 z"
   style="fill:#ffffff;fill-rule:nonzero"
   id="path94" /> </g> <g
   transform="matrix(14,0,0,14,291.78,308.801)"
   id="g100"> <path
   d="M 0.394,0 C 0.333,0 0.281,-0.01 0.236,-0.029 0.191,-0.049 0.153,-0.076 0.122,-0.11 0.095,-0.14 0.073,-0.174 0.058,-0.213 0.043,-0.252 0.035,-0.293 0.035,-0.338 c 0,-0.049 0.01,-0.095 0.029,-0.138 0.019,-0.043 0.046,-0.08 0.08,-0.111 0.03,-0.028 0.066,-0.05 0.107,-0.066 0.041,-0.015 0.088,-0.023 0.143,-0.023 h 0.365 v 0.179 H 0.394 c -0.031,0 -0.056,0.004 -0.076,0.012 -0.02,0.008 -0.037,0.019 -0.052,0.032 -0.015,0.015 -0.028,0.032 -0.036,0.052 -0.009,0.02 -0.014,0.041 -0.014,0.064 0,0.021 0.004,0.04 0.011,0.058 0.007,0.019 0.018,0.035 0.031,0.049 0.015,0.016 0.033,0.029 0.055,0.039 0.022,0.011 0.049,0.016 0.081,0.016 h 0.173 c 0.009,0 0.013,-0.005 0.013,-0.014 V -0.37 h 0.18 v 0.327 C 0.76,-0.014 0.746,0 0.717,0 Z"
   style="fill:#ffffff;fill-rule:nonzero"
   id="path98" /> </g> <g
   transform="matrix(14,0,0,14,308.72,308.801)"
   id="g104"> <path
   d="M 0.757,-0.497 H 0.271 c -0.011,0 -0.02,0.001 -0.026,0.003 -0.007,0.003 -0.012,0.006 -0.016,0.01 -0.009,0.009 -0.014,0.021 -0.014,0.035 0,0.015 0.006,0.027 0.017,0.036 0.004,0.003 0.009,0.006 0.015,0.007 0.005,0.002 0.013,0.003 0.024,0.003 h 0.297 c 0.038,0 0.07,0.005 0.097,0.016 0.026,0.011 0.048,0.026 0.066,0.045 0.018,0.019 0.032,0.04 0.043,0.064 0.01,0.024 0.015,0.049 0.015,0.076 0,0.025 -0.004,0.048 -0.013,0.071 C 0.767,-0.108 0.754,-0.088 0.739,-0.07 0.72,-0.049 0.697,-0.032 0.67,-0.019 0.642,-0.006 0.608,0 0.568,0 H 0.044 v -0.173 h 0.492 c 0.014,0 0.025,-0.001 0.033,-0.005 0.007,-0.003 0.013,-0.007 0.018,-0.012 0.007,-0.009 0.011,-0.019 0.011,-0.031 0,-0.015 -0.005,-0.027 -0.014,-0.036 C 0.579,-0.262 0.574,-0.266 0.567,-0.269 0.56,-0.271 0.549,-0.272 0.536,-0.272 H 0.261 C 0.216,-0.272 0.179,-0.278 0.152,-0.289 0.124,-0.3 0.101,-0.314 0.083,-0.333 0.065,-0.352 0.051,-0.373 0.041,-0.397 0.031,-0.42 0.026,-0.446 0.026,-0.474 c 0,-0.027 0.005,-0.053 0.016,-0.077 0.01,-0.024 0.024,-0.045 0.042,-0.064 0.018,-0.019 0.041,-0.034 0.068,-0.045 0.027,-0.011 0.064,-0.016 0.109,-0.016 h 0.496 z"
   style="fill:#ffffff;fill-rule:nonzero"
   id="path102" /> </g> <g
   transform="matrix(14,0,0,14,319.962,308.801)"
   id="g108"> <path
   d="M 0.023,-0.653 C 0.018,-0.658 0.014,-0.663 0.012,-0.666 0.009,-0.669 0.007,-0.673 0.006,-0.676 h 0.223 c 0.001,0.003 0.003,0.006 0.005,0.01 0.003,0.004 0.006,0.008 0.011,0.013 l 0.17,0.185 c 0.005,0.005 0.009,0.007 0.014,0.007 0.005,0 0.009,-0.002 0.014,-0.007 l 0.169,-0.185 c 0.009,-0.009 0.014,-0.016 0.017,-0.023 h 0.219 c -0.002,0.003 -0.004,0.007 -0.006,0.01 -0.003,0.003 -0.007,0.008 -0.012,0.013 l -0.317,0.35 V 0 H 0.33 v -0.315 z"
   style="fill:#ffffff;fill-rule:nonzero"
   id="path106" /> </g> <g
   transform="matrix(14,0,0,14,331.176,308.801)"
   id="g112"> <path
   d="M 0.757,-0.497 H 0.271 c -0.011,0 -0.02,0.001 -0.026,0.003 -0.007,0.003 -0.012,0.006 -0.016,0.01 -0.009,0.009 -0.014,0.021 -0.014,0.035 0,0.015 0.006,0.027 0.017,0.036 0.004,0.003 0.009,0.006 0.015,0.007 0.005,0.002 0.013,0.003 0.024,0.003 h 0.297 c 0.038,0 0.07,0.005 0.097,0.016 0.026,0.011 0.048,0.026 0.066,0.045 0.018,0.019 0.032,0.04 0.043,0.064 0.01,0.024 0.015,0.049 0.015,0.076 0,0.025 -0.004,0.048 -0.013,0.071 C 0.767,-0.108 0.754,-0.088 0.739,-0.07 0.72,-0.049 0.697,-0.032 0.67,-0.019 0.642,-0.006 0.608,0 0.568,0 H 0.044 v -0.173 h 0.492 c 0.014,0 0.025,-0.001 0.033,-0.005 0.007,-0.003 0.013,-0.007 0.018,-0.012 0.007,-0.009 0.011,-0.019 0.011,-0.031 0,-0.015 -0.005,-0.027 -0.014,-0.036 C 0.579,-0.262 0.574,-0.266 0.567,-0.269 0.56,-0.271 0.549,-0.272 0.536,-0.272 H 0.261 C 0.216,-0.272 0.179,-0.278 0.152,-0.289 0.124,-0.3 0.101,-0.314 0.083,-0.333 0.065,-0.352 0.051,-0.373 0.041,-0.397 0.031,-0.42 0.026,-0.446 0.026,-0.474 c 0,-0.027 0.005,-0.053 0.016,-0.077 0.01,-0.024 0.024,-0.045 0.042,-0.064 0.018,-0.019 0.041,-0.034 0.068,-0.045 0.027,-0.011 0.064,-0.016 0.109,-0.016 h 0.496 z"
   style="fill:#ffffff;fill-rule:nonzero"
   id="path110" /> </g> <g
   transform="matrix(14,0,0,14,342.544,308.801)"
   id="g116"> <path
   d="m 0.795,-0.676 v 0.179 H 0.499 V 0 H 0.317 V -0.497 H 0.02 v -0.179 z"
   style="fill:#ffffff;fill-rule:nonzero"
   id="path114" /> </g> <g
   transform="matrix(14,0,0,14,353.968,308.801)"
   id="g120"> <path
   d="m 0.76,-0.676 v 0.179 H 0.246 c -0.011,0 -0.016,0.006 -0.016,0.017 v 0.077 h 0.527 v 0.13 H 0.23 v 0.082 c 0,0.012 0.005,0.018 0.016,0.018 H 0.76 V 0 H 0.144 C 0.081,0 0.049,-0.031 0.049,-0.094 v -0.491 c 0,-0.061 0.032,-0.091 0.096,-0.091 z"
   style="fill:#ffffff;fill-rule:nonzero"
   id="path118" /> </g> <g
   transform="matrix(14,0,0,14,365.098,308.801)"
   id="g124"> <path
   d="M 0.568,0.014 C 0.544,0.014 0.522,0.009 0.501,-0.001 0.48,-0.011 0.465,-0.027 0.454,-0.048 L 0.249,-0.473 C 0.247,-0.478 0.243,-0.481 0.236,-0.481 0.232,-0.481 0.228,-0.48 0.225,-0.476 0.222,-0.473 0.22,-0.469 0.22,-0.463 V 0 H 0.046 v -0.495 c 0,-0.038 0.005,-0.069 0.017,-0.094 0.011,-0.025 0.026,-0.045 0.046,-0.061 0.015,-0.012 0.033,-0.022 0.053,-0.03 0.019,-0.007 0.041,-0.011 0.065,-0.011 0.043,0 0.078,0.012 0.105,0.035 0.027,0.023 0.049,0.054 0.066,0.091 l 0.153,0.332 c 0.003,0.009 0.009,0.013 0.017,0.013 0.008,0 0.014,-0.004 0.017,-0.013 l 0.153,-0.332 c 0.017,-0.037 0.039,-0.068 0.066,-0.091 0.027,-0.023 0.062,-0.035 0.105,-0.035 0.024,0 0.046,0.004 0.066,0.011 0.019,0.008 0.037,0.018 0.052,0.03 0.02,0.016 0.036,0.036 0.046,0.061 0.012,0.025 0.017,0.056 0.017,0.094 V 0 H 0.916 v -0.463 c 0,-0.006 -0.002,-0.01 -0.005,-0.013 C 0.908,-0.48 0.904,-0.481 0.9,-0.481 c -0.007,0 -0.011,0.003 -0.013,0.008 L 0.682,-0.048 C 0.671,-0.027 0.656,-0.011 0.635,-0.001 0.614,0.009 0.592,0.014 0.568,0.014 Z"
   style="fill:#ffffff;fill-rule:nonzero"
   id="path122" /> </g> <g
   transform="matrix(14,0,0,14,381.03,308.801)"
   id="g128"> <path
   d="M 0.757,-0.497 H 0.271 c -0.011,0 -0.02,0.001 -0.026,0.003 -0.007,0.003 -0.012,0.006 -0.016,0.01 -0.009,0.009 -0.014,0.021 -0.014,0.035 0,0.015 0.006,0.027 0.017,0.036 0.004,0.003 0.009,0.006 0.015,0.007 0.005,0.002 0.013,0.003 0.024,0.003 h 0.297 c 0.038,0 0.07,0.005 0.097,0.016 0.026,0.011 0.048,0.026 0.066,0.045 0.018,0.019 0.032,0.04 0.043,0.064 0.01,0.024 0.015,0.049 0.015,0.076 0,0.025 -0.004,0.048 -0.013,0.071 C 0.767,-0.108 0.754,-0.088 0.739,-0.07 0.72,-0.049 0.697,-0.032 0.67,-0.019 0.642,-0.006 0.608,0 0.568,0 H 0.044 v -0.173 h 0.492 c 0.014,0 0.025,-0.001 0.033,-0.005 0.007,-0.003 0.013,-0.007 0.018,-0.012 0.007,-0.009 0.011,-0.019 0.011,-0.031 0,-0.015 -0.005,-0.027 -0.014,-0.036 C 0.579,-0.262 0.574,-0.266 0.567,-0.269 0.56,-0.271 0.549,-0.272 0.536,-0.272 H 0.261 C 0.216,-0.272 0.179,-0.278 0.152,-0.289 0.124,-0.3 0.101,-0.314 0.083,-0.333 0.065,-0.352 0.051,-0.373 0.041,-0.397 0.031,-0.42 0.026,-0.446 0.026,-0.474 c 0,-0.027 0.005,-0.053 0.016,-0.077 0.01,-0.024 0.024,-0.045 0.042,-0.064 0.018,-0.019 0.041,-0.034 0.068,-0.045 0.027,-0.011 0.064,-0.016 0.109,-0.016 h 0.496 z"
   style="fill:#ffffff;fill-rule:nonzero"
   id="path126" /> </g> </g> </g> </g> </g> </svg>
