<?xml version="1.0" encoding="UTF-8" standalone="no"?> <svg xmlns="http://www.w3.org/2000/svg" xmlns:xlink="http://www.w3.org/1999/xlink" xmlns:serif="http://www.serif.com/" width="100%" height="100%" viewBox="0 0 247 39" version="1.1" xml:space="preserve" style="fill-rule:evenodd;clip-rule:evenodd;stroke-linejoin:round;stroke-miterlimit:1.5;"> <g transform="matrix(1,0,0,1,-96.9867,-401.419)"> <g transform="matrix(1,0,0,1,186.616,79.2823)"> <g transform="matrix(0.485792,0,0,0.485792,-242.183,33.0834)"> <g transform="matrix(0.518518,0,0,0.518518,272.353,525.087)"> <g transform="matrix(1,0,0,1,-70.9131,-47.4187)"> <circle cx="226.913" cy="262.389" r="69.05" style="fill:rgb(51,51,51);stroke:white;stroke-width:9.17px;"></circle> </g> <g transform="matrix(1,0,0,1,-171.161,4.15622)"> <g transform="matrix(1.16918,0,0,1.03395,-86.4305,-13.6232)"> <path d="M352.758,140.727L387.46,212.341L365.29,212.251L353.094,187.343L346.153,202.649L359.951,236.528L340.396,236.445L335.185,224.754L326.019,243.902L302.849,243.724L352.758,140.727Z" style="fill:white;stroke:rgb(51,51,51);stroke-width:2.13px;stroke-linecap:square;"></path> </g> <g transform="matrix(-0.584592,-1.01254,0.89543,-0.516977,332.924,695.932)"> <path d="M352.758,140.727L362.996,161.856L323.119,240.832L335.404,240.452L341.428,228.943L359.99,230.53L343.202,263.692L291.599,260.504L352.758,140.727Z" style="fill:white;stroke:rgb(51,51,51);stroke-width:2.13px;stroke-linecap:square;"></path> </g> </g> </g> <g transform="matrix(2.43559,0,0,2.43559,-133.914,-89.5315)"> <g transform="matrix(14,0,0,14,221.178,294.801)"> <path d="M0.76,-0.676L0.76,-0.497L0.258,-0.497C0.239,-0.497 0.23,-0.487 0.23,-0.467L0.23,-0.394L0.757,-0.394L0.757,-0.226L0.23,-0.226L0.23,-0L0.049,-0L0.049,-0.552C0.049,-0.635 0.09,-0.676 0.171,-0.676L0.76,-0.676Z" style="fill:white;fill-rule:nonzero;"></path> </g> <g transform="matrix(14,0,0,14,232.238,294.801)"> <path d="M0.394,-0C0.333,-0 0.281,-0.01 0.236,-0.029C0.191,-0.049 0.153,-0.076 0.122,-0.11C0.095,-0.14 0.073,-0.174 0.058,-0.213C0.043,-0.252 0.035,-0.293 0.035,-0.338C0.035,-0.387 0.045,-0.433 0.064,-0.476C0.083,-0.519 0.11,-0.556 0.144,-0.587C0.174,-0.615 0.21,-0.637 0.251,-0.653C0.292,-0.668 0.339,-0.676 0.394,-0.676L0.536,-0.676C0.591,-0.676 0.639,-0.668 0.68,-0.653C0.721,-0.637 0.756,-0.615 0.786,-0.587C0.82,-0.556 0.847,-0.519 0.866,-0.476C0.885,-0.433 0.895,-0.387 0.895,-0.338C0.895,-0.293 0.887,-0.252 0.872,-0.213C0.857,-0.174 0.835,-0.14 0.808,-0.11C0.777,-0.076 0.739,-0.049 0.694,-0.029C0.649,-0.01 0.597,-0 0.536,-0L0.394,-0ZM0.394,-0.497C0.363,-0.497 0.338,-0.493 0.318,-0.485C0.298,-0.477 0.281,-0.466 0.266,-0.453C0.251,-0.438 0.238,-0.421 0.23,-0.401C0.221,-0.381 0.216,-0.36 0.216,-0.337C0.216,-0.316 0.22,-0.297 0.227,-0.279C0.234,-0.26 0.245,-0.244 0.258,-0.23C0.273,-0.214 0.291,-0.201 0.313,-0.192C0.335,-0.183 0.362,-0.178 0.394,-0.178L0.536,-0.178C0.568,-0.178 0.595,-0.183 0.617,-0.192C0.639,-0.201 0.657,-0.214 0.672,-0.23C0.685,-0.244 0.696,-0.26 0.703,-0.279C0.71,-0.297 0.714,-0.316 0.714,-0.337C0.714,-0.36 0.71,-0.381 0.701,-0.401C0.692,-0.421 0.679,-0.438 0.664,-0.453C0.649,-0.466 0.632,-0.477 0.612,-0.485C0.592,-0.493 0.567,-0.497 0.536,-0.497L0.394,-0.497Z" style="fill:white;fill-rule:nonzero;"></path> </g> <g transform="matrix(14,0,0,14,245.286,294.801)"> <path d="M0.231,-0L0.05,-0L0.05,-0.634C0.05,-0.662 0.065,-0.676 0.095,-0.676L0.575,-0.676C0.617,-0.676 0.652,-0.67 0.679,-0.659C0.706,-0.647 0.729,-0.631 0.748,-0.612C0.765,-0.595 0.778,-0.575 0.788,-0.552C0.797,-0.529 0.802,-0.504 0.802,-0.479C0.802,-0.452 0.797,-0.426 0.788,-0.402C0.779,-0.377 0.762,-0.356 0.738,-0.339C0.761,-0.326 0.777,-0.309 0.788,-0.288C0.798,-0.267 0.803,-0.238 0.803,-0.199L0.803,-0.064C0.803,-0.049 0.803,-0.037 0.804,-0.028C0.804,-0.019 0.805,-0.009 0.806,-0L0.623,-0C0.621,-0.015 0.62,-0.03 0.62,-0.045L0.62,-0.18C0.62,-0.201 0.614,-0.217 0.603,-0.226C0.592,-0.235 0.573,-0.24 0.546,-0.24L0.231,-0.24L0.231,-0ZM0.551,-0.394C0.564,-0.394 0.574,-0.396 0.582,-0.4C0.59,-0.404 0.597,-0.409 0.602,-0.416C0.611,-0.427 0.615,-0.438 0.615,-0.451C0.615,-0.466 0.61,-0.479 0.6,-0.489C0.589,-0.501 0.573,-0.507 0.551,-0.507L0.246,-0.507C0.236,-0.507 0.231,-0.502 0.231,-0.492L0.231,-0.394L0.551,-0.394Z" style="fill:white;fill-rule:nonzero;"></path> </g> <g transform="matrix(14,0,0,14,256.92,294.801)"> <path d="M0.394,-0C0.333,-0 0.281,-0.01 0.236,-0.029C0.191,-0.049 0.153,-0.076 0.122,-0.11C0.095,-0.14 0.073,-0.174 0.058,-0.213C0.043,-0.252 0.035,-0.293 0.035,-0.338C0.035,-0.387 0.045,-0.433 0.064,-0.476C0.083,-0.519 0.11,-0.556 0.144,-0.587C0.174,-0.615 0.21,-0.637 0.251,-0.653C0.292,-0.668 0.339,-0.676 0.394,-0.676L0.759,-0.676L0.759,-0.497L0.394,-0.497C0.363,-0.497 0.338,-0.493 0.318,-0.485C0.298,-0.477 0.281,-0.466 0.266,-0.453C0.251,-0.438 0.238,-0.421 0.23,-0.401C0.221,-0.381 0.216,-0.36 0.216,-0.337C0.216,-0.316 0.22,-0.297 0.227,-0.279C0.234,-0.26 0.245,-0.244 0.258,-0.23C0.273,-0.214 0.291,-0.201 0.313,-0.191C0.335,-0.18 0.362,-0.175 0.394,-0.175L0.567,-0.175C0.576,-0.175 0.58,-0.18 0.58,-0.189L0.58,-0.37L0.76,-0.37L0.76,-0.043C0.76,-0.014 0.746,-0 0.717,-0L0.394,-0Z" style="fill:white;fill-rule:nonzero;"></path> </g> <g transform="matrix(14,0,0,14,268.218,294.801)"> <path d="M0.76,-0.676L0.76,-0.497L0.246,-0.497C0.235,-0.497 0.23,-0.491 0.23,-0.48L0.23,-0.403L0.757,-0.403L0.757,-0.273L0.23,-0.273L0.23,-0.191C0.23,-0.179 0.235,-0.173 0.246,-0.173L0.76,-0.173L0.76,-0L0.144,-0C0.081,-0 0.049,-0.031 0.049,-0.094L0.049,-0.585C0.049,-0.646 0.081,-0.676 0.145,-0.676L0.76,-0.676Z" style="fill:white;fill-rule:nonzero;"></path> </g> <g transform="matrix(14,0,0,14,279.348,294.801)"> <path d="M0.459,-0.676C0.514,-0.676 0.562,-0.668 0.603,-0.653C0.644,-0.637 0.679,-0.615 0.709,-0.587C0.743,-0.556 0.77,-0.519 0.789,-0.476C0.808,-0.433 0.818,-0.387 0.818,-0.338C0.818,-0.293 0.81,-0.252 0.795,-0.213C0.78,-0.174 0.758,-0.14 0.731,-0.11C0.7,-0.076 0.662,-0.049 0.617,-0.029C0.572,-0.01 0.52,-0 0.459,-0L0.094,-0C0.065,-0 0.05,-0.014 0.05,-0.043L0.05,-0.634C0.05,-0.662 0.065,-0.676 0.094,-0.676L0.459,-0.676ZM0.244,-0.497C0.235,-0.497 0.231,-0.492 0.231,-0.483L0.231,-0.192C0.231,-0.183 0.235,-0.178 0.244,-0.178L0.459,-0.178C0.491,-0.178 0.518,-0.183 0.54,-0.192C0.562,-0.201 0.58,-0.214 0.595,-0.23C0.608,-0.244 0.619,-0.26 0.626,-0.279C0.633,-0.297 0.637,-0.316 0.637,-0.337C0.637,-0.36 0.632,-0.381 0.624,-0.401C0.615,-0.421 0.602,-0.438 0.587,-0.453C0.572,-0.466 0.555,-0.477 0.535,-0.485C0.515,-0.493 0.49,-0.497 0.459,-0.497L0.244,-0.497Z" style="fill:white;fill-rule:nonzero;"></path> </g> <g transform="matrix(14,0,0,14,296.96,294.801)"> <path d="M0.907,-0.03C0.91,-0.025 0.912,-0.02 0.914,-0.015C0.915,-0.01 0.917,-0.005 0.918,-0L0.714,-0C0.713,-0.005 0.711,-0.009 0.71,-0.013C0.709,-0.016 0.707,-0.02 0.706,-0.023L0.67,-0.105L0.27,-0.105L0.235,-0.024C0.234,-0.02 0.232,-0.016 0.231,-0.012C0.23,-0.008 0.229,-0.004 0.228,-0L0.019,-0C0.02,-0.005 0.022,-0.01 0.024,-0.015C0.025,-0.02 0.027,-0.025 0.03,-0.03L0.272,-0.566C0.291,-0.608 0.317,-0.639 0.348,-0.66C0.379,-0.681 0.419,-0.691 0.468,-0.691C0.515,-0.691 0.555,-0.681 0.587,-0.66C0.618,-0.639 0.644,-0.608 0.663,-0.566L0.907,-0.03ZM0.604,-0.254L0.5,-0.496C0.497,-0.503 0.492,-0.509 0.487,-0.512C0.482,-0.515 0.476,-0.517 0.469,-0.517C0.463,-0.517 0.457,-0.516 0.452,-0.513C0.447,-0.509 0.442,-0.504 0.439,-0.496L0.336,-0.254L0.604,-0.254Z" style="fill:white;fill-rule:nonzero;"></path> </g> <g transform="matrix(14,0,0,14,308.006,294.801)"> <path d="M0.795,-0.676L0.795,-0.497L0.499,-0.497L0.499,-0L0.317,-0L0.317,-0.497L0.02,-0.497L0.02,-0.676L0.795,-0.676Z" style="fill:white;fill-rule:nonzero;"></path> </g> <g transform="matrix(14,0,0,14,319.43,294.801)"> <path d="M0.818,-0.676L0.818,-0L0.636,-0L0.636,-0.261L0.233,-0.261L0.233,-0L0.051,-0L0.051,-0.676L0.233,-0.676L0.233,-0.431L0.636,-0.431L0.636,-0.676L0.818,-0.676Z" style="fill:white;fill-rule:nonzero;"></path> </g> <g transform="matrix(14,0,0,14,331.61,294.801)"> <path d="M0.266,-0C0.225,-0 0.19,-0.005 0.162,-0.014C0.133,-0.023 0.111,-0.036 0.094,-0.055C0.077,-0.073 0.064,-0.096 0.057,-0.124C0.05,-0.151 0.046,-0.183 0.046,-0.22L0.046,-0.676L0.228,-0.676L0.228,-0.237C0.228,-0.212 0.232,-0.196 0.241,-0.187C0.249,-0.178 0.265,-0.173 0.288,-0.173L0.757,-0.173L0.757,-0L0.266,-0Z" style="fill:white;fill-rule:nonzero;"></path> </g> <g transform="matrix(14,0,0,14,342.488,294.801)"> <path d="M0.76,-0.676L0.76,-0.497L0.246,-0.497C0.235,-0.497 0.23,-0.491 0.23,-0.48L0.23,-0.403L0.757,-0.403L0.757,-0.273L0.23,-0.273L0.23,-0.191C0.23,-0.179 0.235,-0.173 0.246,-0.173L0.76,-0.173L0.76,-0L0.144,-0C0.081,-0 0.049,-0.031 0.049,-0.094L0.049,-0.585C0.049,-0.646 0.081,-0.676 0.145,-0.676L0.76,-0.676Z" style="fill:white;fill-rule:nonzero;"></path> </g> <g transform="matrix(14,0,0,14,353.618,294.801)"> <path d="M0.795,-0.676L0.795,-0.497L0.499,-0.497L0.499,-0L0.317,-0L0.317,-0.497L0.02,-0.497L0.02,-0.676L0.795,-0.676Z" style="fill:white;fill-rule:nonzero;"></path> </g> <g transform="matrix(14,0,0,14,365.042,294.801)"> <path d="M0.76,-0.676L0.76,-0.497L0.246,-0.497C0.235,-0.497 0.23,-0.491 0.23,-0.48L0.23,-0.403L0.757,-0.403L0.757,-0.273L0.23,-0.273L0.23,-0.191C0.23,-0.179 0.235,-0.173 0.246,-0.173L0.76,-0.173L0.76,-0L0.144,-0C0.081,-0 0.049,-0.031 0.049,-0.094L0.049,-0.585C0.049,-0.646 0.081,-0.676 0.145,-0.676L0.76,-0.676Z" style="fill:white;fill-rule:nonzero;"></path> </g> <g transform="matrix(14,0,0,14,221.178,308.801)"> <path d="M0.795,-0.676L0.795,-0.497L0.499,-0.497L0.499,-0L0.317,-0L0.317,-0.497L0.02,-0.497L0.02,-0.676L0.795,-0.676Z" style="fill:white;fill-rule:nonzero;"></path> </g> <g transform="matrix(14,0,0,14,232.602,308.801)"> <path d="M0.231,-0L0.05,-0L0.05,-0.634C0.05,-0.662 0.065,-0.676 0.095,-0.676L0.575,-0.676C0.617,-0.676 0.652,-0.67 0.679,-0.659C0.706,-0.647 0.729,-0.631 0.748,-0.612C0.765,-0.595 0.778,-0.575 0.788,-0.552C0.797,-0.529 0.802,-0.504 0.802,-0.479C0.802,-0.452 0.797,-0.426 0.788,-0.402C0.779,-0.377 0.762,-0.356 0.738,-0.339C0.761,-0.326 0.777,-0.309 0.788,-0.288C0.798,-0.267 0.803,-0.238 0.803,-0.199L0.803,-0.064C0.803,-0.049 0.803,-0.037 0.804,-0.028C0.804,-0.019 0.805,-0.009 0.806,-0L0.623,-0C0.621,-0.015 0.62,-0.03 0.62,-0.045L0.62,-0.18C0.62,-0.201 0.614,-0.217 0.603,-0.226C0.592,-0.235 0.573,-0.24 0.546,-0.24L0.231,-0.24L0.231,-0ZM0.551,-0.394C0.564,-0.394 0.574,-0.396 0.582,-0.4C0.59,-0.404 0.597,-0.409 0.602,-0.416C0.611,-0.427 0.615,-0.438 0.615,-0.451C0.615,-0.466 0.61,-0.479 0.6,-0.489C0.589,-0.501 0.573,-0.507 0.551,-0.507L0.246,-0.507C0.236,-0.507 0.231,-0.502 0.231,-0.492L0.231,-0.394L0.551,-0.394Z" style="fill:white;fill-rule:nonzero;"></path> </g> <g transform="matrix(14,0,0,14,244.39,308.801)"> <path d="M0.907,-0.03C0.91,-0.025 0.912,-0.02 0.914,-0.015C0.915,-0.01 0.917,-0.005 0.918,-0L0.714,-0C0.713,-0.005 0.711,-0.009 0.71,-0.013C0.709,-0.016 0.707,-0.02 0.706,-0.023L0.67,-0.105L0.27,-0.105L0.235,-0.024C0.234,-0.02 0.232,-0.016 0.231,-0.012C0.23,-0.008 0.229,-0.004 0.228,-0L0.019,-0C0.02,-0.005 0.022,-0.01 0.024,-0.015C0.025,-0.02 0.027,-0.025 0.03,-0.03L0.272,-0.566C0.291,-0.608 0.317,-0.639 0.348,-0.66C0.379,-0.681 0.419,-0.691 0.468,-0.691C0.515,-0.691 0.555,-0.681 0.587,-0.66C0.618,-0.639 0.644,-0.608 0.663,-0.566L0.907,-0.03ZM0.604,-0.254L0.5,-0.496C0.497,-0.503 0.492,-0.509 0.487,-0.512C0.482,-0.515 0.476,-0.517 0.469,-0.517C0.463,-0.517 0.457,-0.516 0.452,-0.513C0.447,-0.509 0.442,-0.504 0.439,-0.496L0.336,-0.254L0.604,-0.254Z" style="fill:white;fill-rule:nonzero;"></path> </g> <g transform="matrix(14,0,0,14,257.536,308.801)"> <rect x="0.051" y="-0.676" width="0.182" height="0.676" style="fill:white;fill-rule:nonzero;"></rect> </g> <g transform="matrix(14,0,0,14,261.512,308.801)"> <path d="M0.889,-0.131C0.889,-0.106 0.885,-0.084 0.878,-0.066C0.872,-0.047 0.862,-0.032 0.851,-0.021C0.839,-0.009 0.825,-0 0.81,0.005C0.795,0.011 0.779,0.014 0.762,0.014C0.733,0.014 0.708,0.01 0.687,0.001C0.665,-0.007 0.646,-0.02 0.63,-0.039L0.259,-0.468C0.254,-0.474 0.248,-0.477 0.243,-0.477C0.238,-0.477 0.234,-0.475 0.231,-0.472C0.228,-0.469 0.226,-0.464 0.226,-0.458L0.226,-0L0.048,-0L0.048,-0.533C0.048,-0.562 0.052,-0.586 0.059,-0.606C0.067,-0.626 0.078,-0.642 0.092,-0.655C0.106,-0.668 0.123,-0.677 0.142,-0.683C0.161,-0.688 0.182,-0.691 0.205,-0.691C0.237,-0.691 0.264,-0.686 0.286,-0.676C0.308,-0.666 0.33,-0.649 0.351,-0.624L0.681,-0.229C0.684,-0.226 0.686,-0.224 0.689,-0.223C0.692,-0.222 0.695,-0.221 0.698,-0.221C0.707,-0.221 0.712,-0.227 0.712,-0.239L0.712,-0.676L0.889,-0.676L0.889,-0.131Z" style="fill:white;fill-rule:nonzero;"></path> </g> <g transform="matrix(14,0,0,14,274.658,308.801)"> <rect x="0.051" y="-0.676" width="0.182" height="0.676" style="fill:white;fill-rule:nonzero;"></rect> </g> <g transform="matrix(14,0,0,14,278.634,308.801)"> <path d="M0.889,-0.131C0.889,-0.106 0.885,-0.084 0.878,-0.066C0.872,-0.047 0.862,-0.032 0.851,-0.021C0.839,-0.009 0.825,-0 0.81,0.005C0.795,0.011 0.779,0.014 0.762,0.014C0.733,0.014 0.708,0.01 0.687,0.001C0.665,-0.007 0.646,-0.02 0.63,-0.039L0.259,-0.468C0.254,-0.474 0.248,-0.477 0.243,-0.477C0.238,-0.477 0.234,-0.475 0.231,-0.472C0.228,-0.469 0.226,-0.464 0.226,-0.458L0.226,-0L0.048,-0L0.048,-0.533C0.048,-0.562 0.052,-0.586 0.059,-0.606C0.067,-0.626 0.078,-0.642 0.092,-0.655C0.106,-0.668 0.123,-0.677 0.142,-0.683C0.161,-0.688 0.182,-0.691 0.205,-0.691C0.237,-0.691 0.264,-0.686 0.286,-0.676C0.308,-0.666 0.33,-0.649 0.351,-0.624L0.681,-0.229C0.684,-0.226 0.686,-0.224 0.689,-0.223C0.692,-0.222 0.695,-0.221 0.698,-0.221C0.707,-0.221 0.712,-0.227 0.712,-0.239L0.712,-0.676L0.889,-0.676L0.889,-0.131Z" style="fill:white;fill-rule:nonzero;"></path> </g> <g transform="matrix(14,0,0,14,291.78,308.801)"> <path d="M0.394,-0C0.333,-0 0.281,-0.01 0.236,-0.029C0.191,-0.049 0.153,-0.076 0.122,-0.11C0.095,-0.14 0.073,-0.174 0.058,-0.213C0.043,-0.252 0.035,-0.293 0.035,-0.338C0.035,-0.387 0.045,-0.433 0.064,-0.476C0.083,-0.519 0.11,-0.556 0.144,-0.587C0.174,-0.615 0.21,-0.637 0.251,-0.653C0.292,-0.668 0.339,-0.676 0.394,-0.676L0.759,-0.676L0.759,-0.497L0.394,-0.497C0.363,-0.497 0.338,-0.493 0.318,-0.485C0.298,-0.477 0.281,-0.466 0.266,-0.453C0.251,-0.438 0.238,-0.421 0.23,-0.401C0.221,-0.381 0.216,-0.36 0.216,-0.337C0.216,-0.316 0.22,-0.297 0.227,-0.279C0.234,-0.26 0.245,-0.244 0.258,-0.23C0.273,-0.214 0.291,-0.201 0.313,-0.191C0.335,-0.18 0.362,-0.175 0.394,-0.175L0.567,-0.175C0.576,-0.175 0.58,-0.18 0.58,-0.189L0.58,-0.37L0.76,-0.37L0.76,-0.043C0.76,-0.014 0.746,-0 0.717,-0L0.394,-0Z" style="fill:white;fill-rule:nonzero;"></path> </g> <g transform="matrix(14,0,0,14,308.72,308.801)"> <path d="M0.757,-0.497L0.271,-0.497C0.26,-0.497 0.251,-0.496 0.245,-0.494C0.238,-0.491 0.233,-0.488 0.229,-0.484C0.22,-0.475 0.215,-0.463 0.215,-0.449C0.215,-0.434 0.221,-0.422 0.232,-0.413C0.236,-0.41 0.241,-0.407 0.247,-0.406C0.252,-0.404 0.26,-0.403 0.271,-0.403L0.568,-0.403C0.606,-0.403 0.638,-0.398 0.665,-0.387C0.691,-0.376 0.713,-0.361 0.731,-0.342C0.749,-0.323 0.763,-0.302 0.774,-0.278C0.784,-0.254 0.789,-0.229 0.789,-0.202C0.789,-0.177 0.785,-0.154 0.776,-0.131C0.767,-0.108 0.754,-0.088 0.739,-0.07C0.72,-0.049 0.697,-0.032 0.67,-0.019C0.642,-0.006 0.608,-0 0.568,-0L0.044,-0L0.044,-0.173L0.536,-0.173C0.55,-0.173 0.561,-0.174 0.569,-0.178C0.576,-0.181 0.582,-0.185 0.587,-0.19C0.594,-0.199 0.598,-0.209 0.598,-0.221C0.598,-0.236 0.593,-0.248 0.584,-0.257C0.579,-0.262 0.574,-0.266 0.567,-0.269C0.56,-0.271 0.549,-0.272 0.536,-0.272L0.261,-0.272C0.216,-0.272 0.179,-0.278 0.152,-0.289C0.124,-0.3 0.101,-0.314 0.083,-0.333C0.065,-0.352 0.051,-0.373 0.041,-0.397C0.031,-0.42 0.026,-0.446 0.026,-0.474C0.026,-0.501 0.031,-0.527 0.042,-0.551C0.052,-0.575 0.066,-0.596 0.084,-0.615C0.102,-0.634 0.125,-0.649 0.152,-0.66C0.179,-0.671 0.216,-0.676 0.261,-0.676L0.757,-0.676L0.757,-0.497Z" style="fill:white;fill-rule:nonzero;"></path> </g> <g transform="matrix(14,0,0,14,319.962,308.801)"> <path d="M0.023,-0.653C0.018,-0.658 0.014,-0.663 0.012,-0.666C0.009,-0.669 0.007,-0.673 0.006,-0.676L0.229,-0.676C0.23,-0.673 0.232,-0.67 0.234,-0.666C0.237,-0.662 0.24,-0.658 0.245,-0.653L0.415,-0.468C0.42,-0.463 0.424,-0.461 0.429,-0.461C0.434,-0.461 0.438,-0.463 0.443,-0.468L0.612,-0.653C0.621,-0.662 0.626,-0.669 0.629,-0.676L0.848,-0.676C0.846,-0.673 0.844,-0.669 0.842,-0.666C0.839,-0.663 0.835,-0.658 0.83,-0.653L0.513,-0.303L0.513,-0L0.33,-0L0.33,-0.315L0.023,-0.653Z" style="fill:white;fill-rule:nonzero;"></path> </g> <g transform="matrix(14,0,0,14,331.176,308.801)"> <path d="M0.757,-0.497L0.271,-0.497C0.26,-0.497 0.251,-0.496 0.245,-0.494C0.238,-0.491 0.233,-0.488 0.229,-0.484C0.22,-0.475 0.215,-0.463 0.215,-0.449C0.215,-0.434 0.221,-0.422 0.232,-0.413C0.236,-0.41 0.241,-0.407 0.247,-0.406C0.252,-0.404 0.26,-0.403 0.271,-0.403L0.568,-0.403C0.606,-0.403 0.638,-0.398 0.665,-0.387C0.691,-0.376 0.713,-0.361 0.731,-0.342C0.749,-0.323 0.763,-0.302 0.774,-0.278C0.784,-0.254 0.789,-0.229 0.789,-0.202C0.789,-0.177 0.785,-0.154 0.776,-0.131C0.767,-0.108 0.754,-0.088 0.739,-0.07C0.72,-0.049 0.697,-0.032 0.67,-0.019C0.642,-0.006 0.608,-0 0.568,-0L0.044,-0L0.044,-0.173L0.536,-0.173C0.55,-0.173 0.561,-0.174 0.569,-0.178C0.576,-0.181 0.582,-0.185 0.587,-0.19C0.594,-0.199 0.598,-0.209 0.598,-0.221C0.598,-0.236 0.593,-0.248 0.584,-0.257C0.579,-0.262 0.574,-0.266 0.567,-0.269C0.56,-0.271 0.549,-0.272 0.536,-0.272L0.261,-0.272C0.216,-0.272 0.179,-0.278 0.152,-0.289C0.124,-0.3 0.101,-0.314 0.083,-0.333C0.065,-0.352 0.051,-0.373 0.041,-0.397C0.031,-0.42 0.026,-0.446 0.026,-0.474C0.026,-0.501 0.031,-0.527 0.042,-0.551C0.052,-0.575 0.066,-0.596 0.084,-0.615C0.102,-0.634 0.125,-0.649 0.152,-0.66C0.179,-0.671 0.216,-0.676 0.261,-0.676L0.757,-0.676L0.757,-0.497Z" style="fill:white;fill-rule:nonzero;"></path> </g> <g transform="matrix(14,0,0,14,342.544,308.801)"> <path d="M0.795,-0.676L0.795,-0.497L0.499,-0.497L0.499,-0L0.317,-0L0.317,-0.497L0.02,-0.497L0.02,-0.676L0.795,-0.676Z" style="fill:white;fill-rule:nonzero;"></path> </g> <g transform="matrix(14,0,0,14,353.968,308.801)"> <path d="M0.76,-0.676L0.76,-0.497L0.246,-0.497C0.235,-0.497 0.23,-0.491 0.23,-0.48L0.23,-0.403L0.757,-0.403L0.757,-0.273L0.23,-0.273L0.23,-0.191C0.23,-0.179 0.235,-0.173 0.246,-0.173L0.76,-0.173L0.76,-0L0.144,-0C0.081,-0 0.049,-0.031 0.049,-0.094L0.049,-0.585C0.049,-0.646 0.081,-0.676 0.145,-0.676L0.76,-0.676Z" style="fill:white;fill-rule:nonzero;"></path> </g> <g transform="matrix(14,0,0,14,365.098,308.801)"> <path d="M0.568,0.014C0.544,0.014 0.522,0.009 0.501,-0.001C0.48,-0.011 0.465,-0.027 0.454,-0.048L0.249,-0.473C0.247,-0.478 0.243,-0.481 0.236,-0.481C0.232,-0.481 0.228,-0.48 0.225,-0.476C0.222,-0.473 0.22,-0.469 0.22,-0.463L0.22,-0L0.046,-0L0.046,-0.495C0.046,-0.533 0.051,-0.564 0.063,-0.589C0.074,-0.614 0.089,-0.634 0.109,-0.65C0.124,-0.662 0.142,-0.672 0.162,-0.68C0.181,-0.687 0.203,-0.691 0.227,-0.691C0.27,-0.691 0.305,-0.679 0.332,-0.656C0.359,-0.633 0.381,-0.602 0.398,-0.565L0.551,-0.233C0.554,-0.224 0.56,-0.22 0.568,-0.22C0.576,-0.22 0.582,-0.224 0.585,-0.233L0.738,-0.565C0.755,-0.602 0.777,-0.633 0.804,-0.656C0.831,-0.679 0.866,-0.691 0.909,-0.691C0.933,-0.691 0.955,-0.687 0.975,-0.68C0.994,-0.672 1.012,-0.662 1.027,-0.65C1.047,-0.634 1.063,-0.614 1.073,-0.589C1.085,-0.564 1.09,-0.533 1.09,-0.495L1.09,-0L0.916,-0L0.916,-0.463C0.916,-0.469 0.914,-0.473 0.911,-0.476C0.908,-0.48 0.904,-0.481 0.9,-0.481C0.893,-0.481 0.889,-0.478 0.887,-0.473L0.682,-0.048C0.671,-0.027 0.656,-0.011 0.635,-0.001C0.614,0.009 0.592,0.014 0.568,0.014Z" style="fill:white;fill-rule:nonzero;"></path> </g> <g transform="matrix(14,0,0,14,381.03,308.801)"> <path d="M0.757,-0.497L0.271,-0.497C0.26,-0.497 0.251,-0.496 0.245,-0.494C0.238,-0.491 0.233,-0.488 0.229,-0.484C0.22,-0.475 0.215,-0.463 0.215,-0.449C0.215,-0.434 0.221,-0.422 0.232,-0.413C0.236,-0.41 0.241,-0.407 0.247,-0.406C0.252,-0.404 0.26,-0.403 0.271,-0.403L0.568,-0.403C0.606,-0.403 0.638,-0.398 0.665,-0.387C0.691,-0.376 0.713,-0.361 0.731,-0.342C0.749,-0.323 0.763,-0.302 0.774,-0.278C0.784,-0.254 0.789,-0.229 0.789,-0.202C0.789,-0.177 0.785,-0.154 0.776,-0.131C0.767,-0.108 0.754,-0.088 0.739,-0.07C0.72,-0.049 0.697,-0.032 0.67,-0.019C0.642,-0.006 0.608,-0 0.568,-0L0.044,-0L0.044,-0.173L0.536,-0.173C0.55,-0.173 0.561,-0.174 0.569,-0.178C0.576,-0.181 0.582,-0.185 0.587,-0.19C0.594,-0.199 0.598,-0.209 0.598,-0.221C0.598,-0.236 0.593,-0.248 0.584,-0.257C0.579,-0.262 0.574,-0.266 0.567,-0.269C0.56,-0.271 0.549,-0.272 0.536,-0.272L0.261,-0.272C0.216,-0.272 0.179,-0.278 0.152,-0.289C0.124,-0.3 0.101,-0.314 0.083,-0.333C0.065,-0.352 0.051,-0.373 0.041,-0.397C0.031,-0.42 0.026,-0.446 0.026,-0.474C0.026,-0.501 0.031,-0.527 0.042,-0.551C0.052,-0.575 0.066,-0.596 0.084,-0.615C0.102,-0.634 0.125,-0.649 0.152,-0.66C0.179,-0.671 0.216,-0.676 0.261,-0.676L0.757,-0.676L0.757,-0.497Z" style="fill:white;fill-rule:nonzero;"></path> </g> </g> </g> </g> </g> </svg> 